<?xml version="1.0" encoding="UTF-8" standalone="no"?>
<!-- Created with Inkscape (http://www.inkscape.org/) -->

<svg
   xmlns:dc="http://purl.org/dc/elements/1.1/"
   xmlns:cc="http://creativecommons.org/ns#"
   xmlns:rdf="http://www.w3.org/1999/02/22-rdf-syntax-ns#"
   xmlns:svg="http://www.w3.org/2000/svg"
   xmlns="http://www.w3.org/2000/svg"
   xmlns:sodipodi="http://sodipodi.sourceforge.net/DTD/sodipodi-0.dtd"
   xmlns:inkscape="http://www.inkscape.org/namespaces/inkscape"
   version="1.1"
   id="svg833"
   width="595"
   height="595"
   viewBox="0 0 595 595"
   sodipodi:docname="players.svg"
   inkscape:version="0.92.1 r15371">
  <metadata
     id="metadata839">
    <rdf:RDF>
      <cc:Work
         rdf:about="">
        <dc:format>image/svg+xml</dc:format>
        <dc:type
           rdf:resource="http://purl.org/dc/dcmitype/StillImage" />
        <dc:title />
      </cc:Work>
    </rdf:RDF>
  </metadata>
  <defs
     id="defs837" />
  <sodipodi:namedview
     pagecolor="#ffffff"
     bordercolor="#666666"
     borderopacity="1"
     objecttolerance="10"
     gridtolerance="10"
     guidetolerance="10"
     inkscape:pageopacity="0"
     inkscape:pageshadow="2"
     inkscape:window-width="1600"
     inkscape:window-height="838"
     id="namedview835"
     showgrid="false"
     inkscape:zoom="0.79327731"
     inkscape:cx="100.28269"
     inkscape:cy="297.5"
     inkscape:window-x="-8"
     inkscape:window-y="-8"
     inkscape:window-maximized="1"
     inkscape:current-layer="svg833" />
  <path
     style="opacity:1;fill:#cb2658;fill-opacity:1;fill-rule:nonzero;stroke:#172222;stroke-width:7.61312723;stroke-linecap:butt;stroke-linejoin:miter;stroke-miterlimit:4;stroke-dasharray:none;stroke-dashoffset:0;stroke-opacity:1;paint-order:normal"
     d="M 341.33789 587.43555 L 254.26172 587.43555 A 292.22153 292.39212 0 0 0 297.34766 591 A 292.22153 292.39212 0 0 0 341.33789 587.43555 z "
     id="path865" />
  <path
     style="opacity:1;fill:#0894b7;fill-opacity:1;fill-rule:nonzero;stroke:#172222;stroke-width:8;stroke-linecap:butt;stroke-linejoin:miter;stroke-miterlimit:4;stroke-dasharray:none;stroke-dashoffset:0;stroke-opacity:1;paint-order:normal"
     d="m 512.27734,492.63086 v -23.68945 c 0,-2.57524 -0.1298,-5.12061 -0.38281,-7.62696 -0.25301,-2.50634 -0.6293,-4.97521 -1.12305,-7.40039 -0.49375,-2.42517 -1.10396,-4.80498 -1.82617,-7.13672 -0.72221,-2.33173 -1.55574,-4.61382 -2.49414,-6.83984 -0.9384,-2.22602 -1.98268,-4.39783 -3.125,-6.50586 -1.14232,-2.10803 -2.38284,-4.15309 -3.7168,-6.13086 -1.33395,-1.97776 -2.76011,-3.88743 -4.27344,-5.72266 -1.51332,-1.83522 -3.11451,-3.59498 -4.79492,-5.27539 -1.68041,-1.68041 -3.44016,-3.2816 -5.27539,-4.79492 -1.83522,-1.51332 -3.74489,-2.93948 -5.72265,-4.27343 -1.97777,-1.33396 -4.02479,-2.57448 -6.13282,-3.7168 -2.10803,-1.14232 -4.27788,-2.1866 -6.5039,-3.125 -2.22602,-0.93841 -4.50811,-1.77193 -6.83985,-2.49414 -2.33173,-0.72222 -4.71154,-1.33242 -7.13671,-1.82617 -2.42518,-0.49376 -4.89405,-0.87004 -7.4004,-1.12305 -2.50634,-0.25301 -5.05171,-0.38281 -7.62695,-0.38281 H 156.79101 c -2.57523,0 -5.11865,0.1298 -7.625,0.38281 -2.50634,0.25301 -4.97521,0.62929 -7.40039,1.12305 -2.42517,0.49375 -4.80693,1.10395 -7.13867,1.82617 -2.33174,0.72221 -4.61382,1.55573 -6.83984,2.49414 -2.22602,0.9384 -4.39588,1.98268 -6.50391,3.125 -2.10803,1.14232 -4.15505,2.38284 -6.13281,3.7168 -1.97777,1.33395 -3.88743,2.76011 -5.72266,4.27343 -1.83522,1.51332 -3.59498,3.11451 -5.27539,4.79492 -1.68041,1.68041 -3.2816,3.44017 -4.794917,5.27539 -1.513319,1.83523 -2.939482,3.7449 -4.273438,5.72266 -1.333956,1.97777 -2.574479,4.02283 -3.716797,6.13086 -1.142317,2.10803 -2.186597,4.27984 -3.125,6.50586 -0.938402,2.22602 -1.771925,4.50811 -2.494141,6.83984 -0.722213,2.33174 -1.33242,4.71155 -1.826172,7.13672 -0.493751,2.42518 -0.870033,4.89405 -1.123046,7.40039 -0.253013,2.50635 -0.382813,5.05172 -0.382813,7.62696 v 31.09961 a 292.22153,292.39212 0 0 0 168.541014,87.39453 h 87.07617 a 292.22153,292.39212 0 0 0 174.24414,-94.80469 z"
     id="path863"
     inkscape:connector-curvature="0" />
  <path
     style="opacity:1;fill:none;fill-opacity:0;fill-rule:nonzero;stroke:#172222;stroke-width:8;stroke-linecap:butt;stroke-linejoin:miter;stroke-miterlimit:4;stroke-dasharray:none;stroke-dashoffset:0;stroke-opacity:1;paint-order:normal"
     d="M 297.34766 6.2148438 A 292.22153 292.39212 0 0 0 5.125 298.60742 A 292.22153 292.39212 0 0 0 85.720703 500.04102 L 85.720703 468.94141 C 85.720703 466.36617 85.850503 463.8208 86.103516 461.31445 C 86.356529 458.80811 86.732811 456.33924 87.226562 453.91406 C 87.720314 451.48889 88.33052 449.10908 89.052734 446.77734 C 89.774949 444.44561 90.608472 442.16352 91.546875 439.9375 C 92.485278 437.71148 93.529558 435.53967 94.671875 433.43164 C 95.814192 431.32361 97.054716 429.27855 98.388672 427.30078 C 99.722628 425.32302 101.14879 423.41335 102.66211 421.57812 C 104.17543 419.7429 105.77662 417.98314 107.45703 416.30273 C 109.13744 414.62232 110.8972 413.02113 112.73242 411.50781 C 114.56765 409.99449 116.47731 408.56833 118.45508 407.23438 C 120.43284 405.90042 122.47986 404.6599 124.58789 403.51758 C 126.69592 402.37526 128.86578 401.33098 131.0918 400.39258 C 133.31782 399.45417 135.5999 398.62065 137.93164 397.89844 C 140.26338 397.17622 142.64514 396.56602 145.07031 396.07227 C 147.49549 395.57851 149.96436 395.20223 152.4707 394.94922 C 154.97705 394.69621 157.52047 394.56641 160.0957 394.56641 L 441.20703 394.56641 C 443.78227 394.56641 446.32764 394.69621 448.83398 394.94922 C 451.34033 395.20223 453.8092 395.57851 456.23438 396.07227 C 458.65955 396.56602 461.03936 397.17622 463.37109 397.89844 C 465.70283 398.62065 467.98492 399.45417 470.21094 400.39258 C 472.43696 401.33098 474.60681 402.37526 476.71484 403.51758 C 478.82287 404.6599 480.86989 405.90042 482.84766 407.23438 C 484.82542 408.56833 486.73509 409.99449 488.57031 411.50781 C 490.40554 413.02113 492.16529 414.62232 493.8457 416.30273 C 495.52611 417.98314 497.1273 419.7429 498.64062 421.57812 C 500.15395 423.41335 501.58011 425.32302 502.91406 427.30078 C 504.24802 429.27855 505.48854 431.32361 506.63086 433.43164 C 507.77318 435.53967 508.81746 437.71148 509.75586 439.9375 C 510.69426 442.16352 511.52779 444.44561 512.25 446.77734 C 512.97221 449.10908 513.58242 451.48889 514.07617 453.91406 C 514.56992 456.33924 514.94621 458.80811 515.19922 461.31445 C 515.45223 463.8208 515.58203 466.36617 515.58203 468.94141 L 515.58203 492.63086 A 292.22153 292.39212 0 0 0 589.56836 298.60742 A 292.22153 292.39212 0 0 0 297.34766 6.2148438 z "
     id="path26" />
  <ellipse
     style="opacity:1;fill:#0894b7;fill-opacity:1;fill-rule:nonzero;stroke:#172222;stroke-width:8;stroke-linecap:butt;stroke-linejoin:miter;stroke-miterlimit:4;stroke-dasharray:none;stroke-dashoffset:0;stroke-opacity:1;paint-order:normal"
     id="path858"
     cx="297.34668"
     cy="262.2034"
     rx="103.36864"
     ry="100.84746" />
</svg>
